<svg xmlns="http://www.w3.org/2000/svg" viewBox="0 0 683.47 47.38"><defs><style>.cls-1{fill:#006694;}</style></defs><title>Recurso 7</title><g id="Capa_2" data-name="Capa 2"><g id="Capa_1-2" data-name="Capa 1"><path class="cls-1" d="M0,34.07c.41-.11.83-.21,1.24-.33a.5.5,0,0,1,.13,0v-.27a63,63,0,0,1,56,12.8A63,63,0,0,1,167.8,47.38h.35a62.91,62.91,0,0,1,82.26-1.13,63,63,0,0,1,110.43,1.13h.35a62.9,62.9,0,0,1,82.24-1.14,63,63,0,0,1,110.43,1.14h.35a62.92,62.92,0,0,1,79.68-3.19A62.91,62.91,0,0,1,683.46,20v1.79h0V0H0Z"/></g></g></svg>