<svg xmlns="http://www.w3.org/2000/svg" viewBox="0 0 683.47 47.38"><defs><style>.cls-1{fill:#000839;}</style></defs><title>Recurso 8</title><g id="Capa_2" data-name="Capa 2"><g id="Capa_1-2" data-name="Capa 1"><path class="cls-1" d="M683.47,13.31l-1.24.34-.13,0V14a63.19,63.19,0,0,1-15.54,1.94A62.73,62.73,0,0,1,626.09,1.14,63,63,0,0,1,571.2,33.23,63.07,63.07,0,0,1,515.67,0h-.35a62.72,62.72,0,0,1-41.78,15.89A62.7,62.7,0,0,1,433.06,1.13a63,63,0,0,1-54.9,32.1A63.07,63.07,0,0,1,322.63,0h-.35A62.72,62.72,0,0,1,280.5,15.89,62.73,62.73,0,0,1,240,1.14a63.06,63.06,0,0,1-54.89,32.09A63.07,63.07,0,0,1,129.61,0h-.35A62.76,62.76,0,0,1,87.48,15.89a62.69,62.69,0,0,1-37.9-12.7A62.9,62.9,0,0,1,0,27.36V25.57H0V47.38H683.47Z"/></g></g></svg>
