<svg xmlns="http://www.w3.org/2000/svg" viewBox="0 0 44.84 2609.78"><defs><style>.cls-1{fill:none;}.cls-2{fill:#fdf9ef;}.cls-3{fill:#fff9ef;}</style></defs><title>Recurso 11</title><g id="Capa_2" data-name="Capa 2"><g id="Capa_1-2" data-name="Capa 1"><path class="cls-1" d="M37.35,1633.34a5.15,5.15,0,0,1-.12.54c0,.22-.07.42-.11.59,0,.72.06,1.4.09,2Z"/><path class="cls-1" d="M34.43,2366.36c.1-.54.21-1.3.31-2.34-.1-2.75-.2-5.31-.31-7.74Z"/><path class="cls-2" d="M37.4,1632.31c.15-1.6.24-3.62.27-5.88Z"/><path class="cls-2" d="M39,1060.23c0,4.31.28,6.11.49,6.32C39.29,1062.55,39.15,1059.26,39,1060.23Z"/><path class="cls-3" d="M41.5,963.56c-.06,2.07-.11,3.82-.16,5.69A29.19,29.19,0,0,0,41.5,963.56Z"/><path class="cls-2" d="M37.67,1626.43l.73-15.13C37.65,1610.24,37.84,1619.05,37.67,1626.43Z"/><path class="cls-2" d="M39.55,1876v4.59a38.12,38.12,0,0,0,.94,3.82Z"/><path class="cls-2" d="M39.91,2067.58c.08-4.34-1.88-5.84-2.74-7.5a36.13,36.13,0,0,1,1.35,9.44C38.89,2069.59,39.34,2069,39.91,2067.58Z"/><path class="cls-2" d="M36.64,2375.21c0,.55.06,1.07.08,1.49Z"/><path class="cls-2" d="M36.52,2372.73l.12,2.48C36.6,2374.42,36.56,2373.55,36.52,2372.73Z"/><path class="cls-2" d="M40,1738.92a4.13,4.13,0,0,0,.7-1.74C40.44,1737.18,40.2,1737.86,40,1738.92Z"/><path class="cls-2" d="M34.43,2603.65l-3.08.11c-.33.37-.66.74-.66,1.1Z"/><path class="cls-3" d="M44,786.64c0,.34,0,.46,0,.79C44.21,792.08,44.17,789.44,44,786.64Z"/><path class="cls-2" d="M42,383.16c.2-.14.44-1.08.86-4.16A21.53,21.53,0,0,0,42,383.16Z"/><path class="cls-2" d="M40,682.68l.26-7.51C40.12,678.15,40.06,680.56,40,682.68Z"/><path class="cls-2" d="M40.22,218c0,1-.11,2-.16,3.33C40.14,220.07,40.19,219,40.22,218Z"/><path class="cls-2" d="M40.22,218a66.69,66.69,0,0,0,0-7.72c-.1.52-.17,1-.24,1.7A37.14,37.14,0,0,1,40.22,218Z"/><path class="cls-2" d="M40.05,57.21c-.15.87-.26,2-.4,3,0,1.63.07,3.53.11,5.2Z"/><path class="cls-3" d="M43.22,797.05q0,3.71.18,6.87C43.36,801,43.3,798.76,43.22,797.05Z"/><path class="cls-2" d="M39.2,673.55c-.2-1.59-.33-3.22-.43-4.88C39,672.31,38.94,677,39.2,673.55Z"/><path class="cls-2" d="M38.72,193.45a2.41,2.41,0,0,0-.17-.42C38.61,193.29,38.66,193.44,38.72,193.45Z"/><path class="cls-2" d="M35.73,1783.83v0Z"/><path class="cls-2" d="M35.74,1784c0,.23,0,.46,0,.71C35.77,1784.47,35.76,1784.23,35.74,1784Z"/><path class="cls-3" d="M44.84,855.17c-.4-8.35-.39-15.19-.38-22.16l-1.67,8c.29-8.2.3-15.15,1-15-1.09-8.46-2.76,6.47-4.25-10.31.84-10.93-.91-33.3,1.3-37.08-.68,30.94,1.65,3.16,2.39,18.44q-.06-6.13.22-13.82c.24-1.23.45,1.17.58,3.41,2-32.91-2.49-15.13-2.44-49.23,1.24,4.33,2.36-7.91,2.09-13.47,0,13.74-2.07,6.57-3-6,1-21.87-.72-23.77-.61-35.22l-.46,13.07c-1.24-4.43-1.08-15.36-1.47-30.61.3-.4.48.78.6,2.44-.74-15.86,2.59-35,1.28-55.88.85-10.93,2.34-1.06,2.91-10.66-1.61-26.45,1.7-28.65.37-56.45-1.67,8-1.26,9.41-2.89-10.16l1.18,45.7L39.13,550.8c0,13.79,1,29.11.76,37.37-1.36-14-.94-12.54-2.33-5.94,2.51-18.87-1.46-37.42.23-59.24l4.14.67c1.84-32.8-2.12-58.28-1.08-100.87l-.72,13.68c-1.65-5.71-.23-26.29-.9-40.09,1.38,1.28,1.89-7.34,2.75-13.22-1,.71.09-31.18-2.67-35.05l1.82-19c.75-34.4-3.94-39.26-3.47-72.32,1.51,10,2.48-5.07,3.56,17.08,0-11,.27-21-.69-21.14.86-6.44-1.86-30.6-.55-40.75-.61-4.66-2.06-6.18-1.94-18.57.16-.8.37-.64.51-.37-.56-2.75-.89-18.05-2.29-8.15,4.31-34-.31-95,3.39-124.65-.15-8.87-.32-18.42-.49-27.89-.07-4.73-.14-9.44-.2-14-.06-6.1-.12-12-.17-17.71L14.71.75c1.41-.41.08-.69,4.21-.55C9.33-.2,4,.05,0,.54V2609.78c17.1-.87,39.28-3,33.83-3.65-6.82-.05-17.44-.68-17.95-1.79l14-.53c.32,1.16.75,1.2,1.08,0h.35a7.19,7.19,0,0,1,.62-.61h2.46v-2c1-.91,1.4-1.8,0-2.64V2420.32l.54,1.85-.54-5.49V2393c.41.72.77,3,.94,7.64,1.44-17.17-1-15.2.57-29.94.25-1.63.39-.89.51.61l-.87-16.77c.61,3.29,2.06-2.79,1.63,7.52,1.69-30.11-2.18-48.55,0-59.88l.18,2.51c-.74-31.23-1.57-18-3-22.46v-19.54L38,2248.24l-2.13-4.11c.07-4.31.23-12.83,1.09-11.25-1.47-16-.93,2.73-2.31-6.58,1.94-20.74-.91-57.18,2.49-61.86-1.62-7.44-1.25,19.84-2.38-2.3,3.66-6.32-.63-25.6,1.05-44.55,1.89,5.82.89,23.77,2.58,4.81-3.2-11.43.7-36.89.09-52.88-2.55-.75-1.06-34.75-1.91-61.56.85,1.69,1.39-50.47,2.31-75.41l.43.73c-2.57-4.83-2.08-30.56-2.62-49.3,1.54.74,2.15,4.11,2.84,14.26v-17.62c-.83-4.15-1.26-9.65-1.56-21.07l1.93,4.43c-.11-23.45-2.27-47.22-1-77.38-1.22-1.15-3.08,10.25-4.52,7.83v-16.36c.56.5,1.07,2.07,1.3,5.76a111.92,111.92,0,0,1-.34-14.41L37,1782.16c.72-13.74-1.36-7.18-1.21-18.17,1.38.22,1-8.13,2.08-6.55.14,2.8-.57,9.58,0,13.79.25-12.39,1.07-27.36,2.12-32.31-.79,1.08-1.86,0-2-9.07-.1-23.44,1.66-8,2.37-21.7-1-5.68,0-20.63-2-21,0-6.86,1-8.13,1.53-10.78-.91-12.13-.26-56.67-2.46-43l-.14,3.11c0-.58-.06-1.26-.09-2-2-39.77,1.17-82.61.29-122.08l.69.07c-.79-23.56-.47-52.43-2-69.25,0-7,1.27-16.45,2.09-13.47-.52-18-1.3-20-.16-46,1.21,18.1,1.07-6.25.89,18.55.59-23.4,1.7-28.69-.19-53.81,1.77,8.55,2.23-17.62,1.7-28.74L39.2,1336.1c-.25-12.5-.1-23.44,0-34.55l2.33,6c2.84-47.88-4.82-86.34-.08-122.79-1.62-12.67-1.14,26-3,14.68.32-22,3.66-45,3.67-51.87,1.29-30.17-3.41-28.15-2.52-59.72-.83,4-3.05,7.85-3.83-15.74.3-22,3.48-27.09,4.15-13.18.07,5.29-.2,7.84-.48,7.61.3,7.13.66,16.47,1.56,7.74l-.83-2.86c.85-10.93.76-41.25,2.12-34.13-.67-14.2-1.19-9.36-1.59,0,.86-25.12-.12-40.79.64-68.06-.46,4.63-1.43,8.89-1.42,4.29,1-42.68-1.58-18.79-1.94-47.71,1.26-16.43,3,5.88,2-23.22.86-17.78,2.2-3.77,2.88,3.3-1.6-26.53,1-49.56,1.35-64.7ZM34.74,2364c-.1,1-.21,1.8-.31,2.34v-10.08C34.54,2358.71,34.64,2361.27,34.74,2364Z"/><path class="cls-2" d="M37.12,1634.47c0-.17.07-.37.11-.59A3.94,3.94,0,0,0,37.12,1634.47Z"/><path class="cls-2" d="M37.4,1632.31c0,.58-.11,1.12-.17,1.57a5.15,5.15,0,0,0,.12-.54Z"/><path class="cls-2" d="M37.81,2190l-.57,30.07c.76-5.25,1.79-12.16,2,1.51C41.48,2183.7,37.51,2229.42,37.81,2190Z"/><path class="cls-2" d="M38.92,2096.78c.35,16.16,1.1-.19,1.53.67C39.76,2087.2,39.58,2084.72,38.92,2096.78Z"/><path class="cls-2" d="M39,1423.07l1.67,1.52C40.47,1412.59,40.05,1423.6,39,1423.07Z"/><polygon class="cls-2" points="42.42 1218.07 42.68 1223.51 42.03 1202.73 42.42 1218.07"/><path class="cls-2" d="M41.79,86.4l-2.21,3.76C40,98.58,42.46,100.35,41.79,86.4Z"/></g></g></svg>