<svg xmlns="http://www.w3.org/2000/svg" viewBox="0 0 35.76 2608.34"><defs><style>.cls-1{fill:none;}.cls-2{fill:#fdf9ef;}.cls-3{fill:#fff9ef;}</style></defs><title>Recurso 10</title><g id="Capa_2" data-name="Capa 2"><g id="Capa_1-2" data-name="Capa 1"><path class="cls-1" d="M5.32,2141.09c0,11.3.1,21.23.13,28.85.19.84.41,1.8.62,2.74A152.2,152.2,0,0,0,5.32,2141.09Z"/><path class="cls-1" d="M3.41,2148.86c-.4,1.06-.79,3.64-.51,11.36a9.92,9.92,0,0,0,1,3.05c-.08-.22-.17-.69-.24-.91C3.51,2156.77,3.45,2152.5,3.41,2148.86Z"/><path class="cls-1" d="M5.28,2169.15c.11,1.15.14,3.2.2,4.95,0-1.3,0-2.76,0-4.16C5.39,2169.65,5.33,2169.38,5.28,2169.15Z"/><path class="cls-2" d="M3.18,224.27c1.76-18.39,2.26,29.95,4.21,2.25C6.63,229.1,4.33,201.34,3.18,224.27Z"/><path class="cls-2" d="M13.65,2608.06c1.61.09,3.59.17,6,.28Z"/><path class="cls-2" d="M5.75,2184.41a2.69,2.69,0,0,0,0-.4C5.78,2184.15,5.77,2184.27,5.75,2184.41Z"/><path class="cls-2" d="M5.58,2033.86h0C5.6,2033.66,5.59,2033.67,5.58,2033.86Z"/><path class="cls-2" d="M6.05,1871.43c0-.6,0-1.22.08-1.87C6.09,1870.24,6.06,1870.85,6.05,1871.43Z"/><path class="cls-3" d="M32.29.21,5.73,0c-.08,5.51-.15,10.91-.22,16.09,0,1,0,1.91-.08,2.85s-.06,1.68-.08,2.5c-.08,1.64-.15,3.23-.22,4.76A106.65,106.65,0,0,1,3.61,40.92c2,48.61-.84,96.44-.52,153.08,4.16-20.09.12,16.54,4.4,13.06.27,13.1.2,18.15-.07,19.37l.18-2.77c-.09,1.18-.13,1.85-.21,2.86h0L4.86,266.44c-1.25,9.48-1-12.55-1.91-11.33C2.62,284,1.14,267.23,0,286.34c1.53-3.92,2.19,10,1.61,26.51l2-23.19C5.86,330,0,324.55,2.25,365.24L.9,352.37c.79,20.88,0,77,3.41,97.49-.49,3.69-1.66,8.57-2-.62C1.82,499.14,6,560.32,3.88,599.1l-1-3.79c.3,9.31,2,16.21.91,27.86-.43-.6-1-3.75-1.1.57.36,4.92,1.83,24.72,1.22,37.06L2.68,650.26C1.31,698.93,5.55,725,6.27,765.77c-3.08-.11-4.08,38.19-4.58,57.3l-.44-.66C.87,879.08,3.81,918.68,5,971.16c-3.35,32.58-1.41,110.36-3.28,162.72.56-8,2.4,1.3,2.71,10.61-.63,12.28,2.14,34-.69,32l.06-4.39c-2.78,9.26-2,34.52-2.11,54.23l3.69,3.26c-5.37,51.57,2,135.12-2.84,163.27.93,12.44.91,27.86,1.84,40.2l-2-.67c-.51,34.49-.76,51.7-.29,94.32L.72,1518c-.13,24,5.71,30.36,5.83,52.54l-3,6.67c.05,41.94-2.55,84.4.13,125.84-.43-.68-1.29-1.91-1.41-8.71-.07,19-1.86,72.31,1.64,69.73-1.94,5,.23,44.09,1.33,65.4L3.33,1826c2.49,19.12,3.17,19.73,3.86,46.43-.23,5.81-1.35,5.6-1.14-1-.77,19,1.9,15.34.89,40.12L5.69,1902c-.15,21.69.52,20,2,31.91.79,13.64-.49,41.15-2.25,44.36,1.07,2.92,2.51,14.8,2,27.58-.66,1.73-1.08-2.92-1.28-5.27-1.33,36.28,2.27,53.94.35,78.88-.64.52-1,2.15-1.16,4.22,0-26.31.13-47.94.26-49.84-1.77.31-2.1,23.14-4.56,4.75,1.35,18.68,4.3,50.63,3.45,73.32a19.23,19.23,0,0,1-.62,3l-.2-2.35a137.9,137.9,0,0,0,.29,14.34c-.3,7.24-.52,11.84-.54,18.79-1.49,2.69-.8,26.69-.88,38.3,1.95-1,1.66,13.92,3.23.4-.11.45-.2-3.49-.27-10.31-.06-1.75-.09-3.8-.2-4.95,0,.23.11.5.17.79,0-7.62-.08-17.55-.13-28.85a152.2,152.2,0,0,1,.75,31.59c1.26,6,2.56,12.51,3.17,16.2-2.74,15.88-4.22,46.5-5.92,50.76,1.11,35.44.73,83.49,4.43,105.77.47,10.08-1.06,11.58-1.64,15.35-.37-5.82-.32-12.74-.85-15.88,1,20.14.37,59.68,3,64.49-1.16,25.4-2.37-14.27-2,20.62l-.79-4.71c-2,32.9-.55,59.9.9,87.49.72,13.79,1.45,27.73,1.75,42.63.15,7.45.2,15.14.08,23.17q-.07,6-.29,12.31-.29,8.23-.57,16.88l6.31.3c-3.27-.17-5-.34-5.71-.63l19.92.37,7.9.1V.24ZM2.9,2160.22c-.28-7.72.11-10.3.51-11.36,0,3.64.1,7.91.24,13.5.07.22.16.69.24.91A9.92,9.92,0,0,1,2.9,2160.22Z"/><path class="cls-2" d="M5.48,2174.1c0,1.11.13,1.73.15,3.18.17-1.58.32-3.08.44-4.6-.21-.94-.43-1.9-.62-2.74C5.46,2171.34,5.47,2172.8,5.48,2174.1Z"/><polygon class="cls-2" points="2.62 1254.11 1.88 1244.28 2.5 1262.8 2.62 1254.11"/></g></g></svg>