<svg xmlns="http://www.w3.org/2000/svg" viewBox="0 0 1367.58 98.46"><defs><style>.cls-1{fill:#2d3457;}</style></defs><title>Recurso 112</title><g id="Capa_2" data-name="Capa 2"><g id="Capa_1-2" data-name="Capa 1"><path class="cls-1" d="M.39.23C-.36.61,0,1.61,2,1.56L3.52,0Z" transform="translate(-0.03)"/><path class="cls-1" d="M13.63,4.2C16,3.56,18.84,2.33,17.42.71c-2.43,1.43-3,.73-5.59,2.45-2,.06-3.45-.76-3.07-1.35-.74.38-3.08-.57-4.23.39,2.52,1.46,5.81,1.73,9.32.91C14.57,3.52,13.82,3.91,13.63,4.2Z" transform="translate(-0.03)"/><path class="cls-1" d="M208.83,20l-1.24-.28A5.3,5.3,0,0,0,208.83,20Z" transform="translate(-0.03)"/><path class="cls-1" d="M329.83,29.09c-.92,0-1.32.11-1.37.26C329.32,29.3,330,29.25,329.83,29.09Z" transform="translate(-0.03)"/><path class="cls-1" d="M350.39,32.31l-1.21-.2A2,2,0,0,0,350.39,32.31Z" transform="translate(-0.03)"/><path class="cls-1" d="M208.83,20l3.21.74C212.3,20.21,210.4,20.22,208.83,20Z" transform="translate(-0.03)"/><path class="cls-1" d="M40.84,2a7.09,7.09,0,0,0-1.79.31c.56,0,1.1-.05,1.66-.06A1.49,1.49,0,0,1,40.84,2Z" transform="translate(-0.03)"/><path class="cls-1" d="M155.38,17.72l-1-.06a4.5,4.5,0,0,0-.86.61Z" transform="translate(-0.03)"/><path class="cls-1" d="M114.41,15.2c.92.13,1.34-1.25,1.73-1.84a3.13,3.13,0,0,1-2.08.82A1.61,1.61,0,0,0,114.41,15.2Z" transform="translate(-0.03)"/><path class="cls-1" d="M49.64,8.34l-1.17.12C48.77,8.42,49.28,8.4,49.64,8.34Z" transform="translate(-0.03)"/><path class="cls-1" d="M184.68,20a1,1,0,0,0,.34.52C185,20.36,184.89,20.18,184.68,20Z" transform="translate(-0.03)"/><path class="cls-1" d="M1319.83,26.3c0,.11.06.15.08.24C1320.09,26.33,1320.13,26.21,1319.83,26.3Z" transform="translate(-0.03)"/><path class="cls-1" d="M1366.81,16.84l-.59.31a3.81,3.81,0,0,0,.16.79Z" transform="translate(-0.03)"/><path class="cls-1" d="M388.11,36.66l-.17,0C386.94,36.72,387.5,36.73,388.11,36.66Z" transform="translate(-0.03)"/><path class="cls-1" d="M732.92,73.15c-3.62-2,6.6-.32,1.06-2.86C734.41,70.94,728.26,71.38,732.92,73.15Z" transform="translate(-0.03)"/><path class="cls-1" d="M41.89,2.29c.55,0,1.11,0,1.67.1A10.3,10.3,0,0,0,41.89,2.29Z" transform="translate(-0.03)"/><path class="cls-1" d="M734,70.29h0l-.57-.25Z" transform="translate(-0.03)"/><path class="cls-1" d="M475.32,41.72a2.52,2.52,0,0,0-.85-.68C474.49,41.19,474.68,41.38,475.32,41.72Z" transform="translate(-0.03)"/><path class="cls-1" d="M410.51,35.33l1.59.3A9.19,9.19,0,0,0,410.51,35.33Z" transform="translate(-0.03)"/><path class="cls-1" d="M509.14,42a6,6,0,0,0,2.36.25,2.42,2.42,0,0,0-.36-.19A3,3,0,0,1,509.14,42Z" transform="translate(-0.03)"/><path class="cls-1" d="M544.2,44a5.3,5.3,0,0,0-.63-.32h-1.11Z" transform="translate(-0.03)"/><path class="cls-1" d="M1217.65,55.57a5.26,5.26,0,0,1,1.87.86C1218.76,55.58,1223.69,54.05,1217.65,55.57Z" transform="translate(-0.03)"/><path class="cls-1" d="M40.8,2.83a1.27,1.27,0,0,1,1.09-.54c-.41,0-.8,0-1.18,0C40.6,2.49,40.56,2.69,40.8,2.83Z" transform="translate(-0.03)"/><path class="cls-1" d="M511.22,31l5.58.53C515.24,31.31,513.22,31.12,511.22,31Z" transform="translate(-0.03)"/><path class="cls-1" d="M969.09,86.09l1.28-.18A2.8,2.8,0,0,0,969.09,86.09Z" transform="translate(-0.03)"/><path class="cls-1" d="M533.41,32.3a11.21,11.21,0,0,0,3.08,1.15,2.09,2.09,0,0,0,.67-.32Z" transform="translate(-0.03)"/><path class="cls-1" d="M1219.53,56.45v0Z" transform="translate(-0.03)"/><path class="cls-1" d="M1254.24,44.3c-5.13,1.32-1.94,2.38-2.76,3.7-6,2.12-3.17-.56-5.49-.94-3.7,1.44-6.22,3.83-9.1,4.48-.28-.24-.87-.21-.31-.74-3.69,2.48-12,3-16.32,5.94a1.45,1.45,0,0,1-.73-.29,2.87,2.87,0,0,1,1.31,2.29c-2.31.58-4,2.12-5.19,1.15,1.43-.29,1.44-.79,2-1.31l-2.31,1.07c-2.58-1.19,3.18-1.34,2.89-2.59-4.61,1.62-9.82,4.29-13.56,4.64-1.13-1.49,8.36-2.5,3.19-2.87l5.76-.64c-4.89-1.64,3.45-.6-1.13-2.49-7.48,1.2-8.06,2.74-15.55,3.83-1.47,1.28.84,1.25-.62,2.53-10.17,3.93-9.15-2.43-16.42,1.36-1.78,1.51-2.14,3.78-7.88,3.76l1.51-2.25c-7.23,1.19-3.59,3.49-11.39,3.64,1.21-1,5.55-1.69,4.42-1.71-5.17-.57-3.26,1.72-7,2.43l-1.09-1.53c-3.81.87-7.79,1.88-11.87,3s-8.27,2.22-12.53,3c.4-.57,1.78-1.33-.3-1.53-10.63,2.59-23,3.3-33.59,3.67l-3.8,2c-.93.1-1.8-.45-.83-.86-4.13,0-.1,1-2,1.77-2.3.39-3.16-.45-1.75-1.07-1.75.53-3.89,1.12-6.22,1.7s-4.89,1.07-7.46,1.51c-5.14.85-10.36,1.45-14.24,1l1.44-.56c-6-.06-6.39,3.6-12,2.73l1-.36c-6.44.32-13.2.92-19.58,1.38a74.77,74.77,0,0,1-17.37-.31c-.88,1.1-4.08,1-7.13,1.07s-6,0-6.34,1.55c-7.41-1.23-5.32-1.8-15.68-2.47-2.76-.11-4.08,1.89-7.5,2.24l-.1-1.54-4.62,1.67-2.48-1.81-3.2.43c1.27.08,2.71.66,2.52,1.11a20.42,20.42,0,0,1-4,.15,31.41,31.41,0,0,1-4-.53c-2.45-.48-4.28-1.15-4.34-1.54l-11.87,1.17c.27-.62,2.26-.81,3.83-1.19-6.34,1.5-1.12-1.63-6.94-.26.77.36-.44.92-.57,1.23-2.88-1-9.46-1-14.34-.73l1-1c-8.76-.59-18.51-.21-28.36-.62,3.51.64,2.61,2.44-.3,2.51l-1.07-1.68c-1.92.93,3,.74-.91,1.82-3.68-.34-2.38-2-.24-2.4-1.5.12-3,.29-4.5.37-.24-.51.82-.68,1.13-1.3-1.89.9-7.6-2.17-10.35-.6l-.22-.5c-9.8-.72-14.31-.39-22.3-1-.28,1.39-3.37.76-5.86,1.65-5.83-1.05-12.23-2.81-19.3-3.41-5,.11-1.59,1-3.92,1.56-.21-1.32-7.26-2.13-3.5-2.56-8.47-.94-10.82-1.12-21.66-1.62,1.08.7,2.35,1.14,1.61,1.46-2-.1-4.32-1.24-4-1.8l.53,0c-6.13,0-12.9-2.05-19.35-3.93s-12.57-3.9-17.57-3.45l.56,0c-3.37-.16-6.74-.26-10.11-.48-4.49-1.11,2.9-.4-.3-1.84-11,0-16.71-3.59-25.75-4-3-2.54-9-3.69-15.41-4.73s-13.08-1.92-17.45-4l.36,1c-2.53.39-2.77-1.06-4.48-1.6.12.72,2.42,1.29.86,1.47-5.07-.75-10.22-1.58-15.38-2.62s-10.34-2.23-15.54-3.4L653.22,45l-7.81-1.72c-2.6-.59-5.22-1-7.81-1.49-7.62-1.28-5,4-14.31.54l3-1.26c-3.92,0-7.84-.33-11.77-.76s-7.87-.78-11.8-1.24-7.84-.94-11.73-1.29c-1.94-.18-3.88-.33-5.81-.43s-3.85-.18-5.77-.11c.94-.3,1-.79,2.49-.66-3.08-1.47-11.83-1.05-12-.08-2.35-.31-.47-.93-1.88-1.55-3.16-1-8.19.85-9.8-.48-.27-.22.93-.32,1.53-.36-2.14.4-9.74-1-7.84.58-5.64-1.19-10.92-.17-15.4-1.26-3.06,1.37-9.68-1.31-10.76.82.55-2.24-9.86-2.41-13.51-1.56,1.24-.61-3.09-.89-1.62-1.75-4.11-.19-7.88,0-7.24,1.17-7.38-3.21-15.27,1.15-19.31-2.6-12.22.39-23.52.45-34.48.24.53-2.22,12.1.6,11.77-1.8-10.43.23-16.52,1.76-26.77.52-2.65-.49,1.57-.88,2.49-1.2-10.41.22-20-1.56-29.31-1,0-.21,1.05-.37,2-.48-1.83-.05-4.21-.61-4.06.42l1.78-.15c2.82,1.68-7.4,2.61-7.77,3.37,3.26-2.72-9.06-1.35-3.94-4.73-1.21.12-2.74.5-2.5,1.2-1.77-.32-2.3-.75-.46-1.41-6.54.12-4.29,1.36-10.19.94.05-.5,1.26-.61,1.9-1.15a24.64,24.64,0,0,1-11.06.77c.32-.28-.23-.7,1.25-.6-8.56-.42-14.74,1.59-24.07,0,2.9-2-3.15-.92-3.53-2.82l-5.09.21,2,1c-4.42-.33-8.41.76-12.18-.11l3.33-.54-8.3-.21,4.64,1c-4.53.66.34,2.39-5.51,1.48,1.2-.11-4.43-.33-6.66-1.58h0a17.49,17.49,0,0,1-7.75.23c-.82-.65.81-2,.28-2.45-2.26,1.41-10.38-.27-13.22,1.21.94-.33,1-1.31.76-1.53l-1.89,1.15c-2-.55-2.31-.76-1.93-1.52-6.15-.65,1.81,2.5-5.44,1,.58-.06.32-.27,1.52-.38-7.31-1-14.24-.16-20.95-1.24-1.87-2,5.93-.06,3.75-1.79-9.75-.32-20.29.88-29.68-.2l1.74.33C245,20.38,239.58,16,234.74,17c1.18-.11,1.62-1.36,1.29-1.09-6.42-.86-13.22-.24-23.05-.07l1.26-.6c-3.77-.86-10-1-14.08-1.61-1.26.59-3.6.33-2.23,1.41-12.41-4.73-24.28.44-35.3-3.54,1.34.08,3.23-.38,2.17-.45l-9.61,0c.68,1.21,1.21.79,3.16,1.82a15.3,15.3,0,0,1-6.36.79c4.35-.47.08-1.86-1.73-2.63.29.38-.38.73-.24,1.1-4.87-2.39-1,2.26-7.72.42l.4-.59c-2.58.14-5,.78-7.72.42-1.06-1.41,2.76-.44,3-1.52-3.87-.19-7.79,2-11.21.44,1.67-.26,4-.1,5.7-.36-3.71-1.82-4.18-1.46-7-1.9l.28.06-6.5-1.16,1.64.54c-5.07,3.15-9.9,0-16.57,1.81C110.8,8.49,105.45,9,106,7.56,104.4,7,101.9,6.39,102.65,6c-3.16,1-5.08-1.3-9.55.18-.16-.5-3.29-.27-2.51-1.44-4,.11.89.91.51,1.5-6.28,1.24-14.38-3-23.41-1.32-7.73.42-9.25,2-16.41,2.3-2.35-.94,2.08-1.64,2.08-1.64a28.75,28.75,0,0,0-10.43-.73c.77-.38,0-.79-1-1.41C39,3.38,39.81,5.09,36,4.11a9.79,9.79,0,0,1,3-1.76c-3.48.22-6.94.9-10.54,1.09-.89-.91,2.24-1.14,3.53-1.6-4,.1-10.45.06-11.78,1.32l2.55.65c-1.47,0-.68-1.2.42-1.37,3.51-.82,4.93.8,5.09,1.3l-2.57.14c2.42,3,10.25.23,15.36.74L38.83,6.55,44.2,5.19c1.08.61,1.77,1.82-.78,2,3.6,1.28,3.3-.52,6.37.84.34.2.17.29-.15.35L53.26,8c-.73.39.5,1.5-1.68,1,6.36,1.64,10.48-.85,12.8.89l-.55.09c9-.1,1-1.47,7.78-2.8l4.26,4.06,1-1.46c.92.11,2.73.35,2.36.94,3.49-.81-.54-.7,1.51-1.55,4.34,1.68,12.27.17,13.11,2.67,1.67-1-4.18-1.18.6-1.67,1.18,2.7,5.51-.07,9.48,1.4-1.33,1.26-5.12.29-1.15,1.77,2.59-2.12,7.86,1,11.3.82.28-1.8,7.48-.25,13.25-.47-.4.59,10.73,1.73,16,2.74l-.18.3c1.15-1.76,6.63-1.05,10.66-1.15-.23,1.08-1,1.47-3.18,1.81l3.77.25c.93-.53,2.12-.76,4.58-.8l-1,1.3c5,.26,10.2-.93,16.59.42.45-1.25-4.9-3.9,2-4.3.21.71.39,1.91-1.41,2.07a8.13,8.13,0,0,1,3.28-.05l-2.8,1c2.9.71,1.6-.86,3.94-.6-.11,1,1.69.82,1.3,1.58-.6.06-2-.54-2.94-.22,2.63.36,5.8,1.16,6.81,2-.2-.58.08-1.33,2-1.33,5,.27,1.64,1.3,4.53,2,1.26-.6,4.41.32,4.59-1.14,1.47.1,1.69.81,2.23,1.25,2.64-.48,12.13.63,9.31-1.14l-.66-.14c.13,0,.27,0,.43,0h0c8.59-.89,17.61,2,26.09,2l0,.49c5.07-.22,11.23.43,14.89-.39,1.49.1,3.46,1.14,2.79,1.68,3.87-.11,4.34-.63,9.85.56-3.93.6,1.29.85-4,.36,5,.76,6.06,1.63,11.52.65-1.91,1.13,3.66,1.84,6.07,1.62l-3.45-1.14a62.53,62.53,0,0,1,7.38.54l-1.39,1.57c10.12,2.71,18.68-2.19,26.26,1.72,2.78-1-5.51-1.19-3-2.39,4.69.55,9.45,3.26,10.93,3.37,6.39,1.35,6.16-2,12.87-.94-.82-.65-1.54-2.28,3.54-2.5,4.7.54,5.64,2.88,2.63,3.15-1.13,0-1.66-.25-1.6-.45-1.54.11-3.55.23-1.72,1l.64-.55c2.3.76,8.79,1.14,7.21,2,3.59-.33,1.58-.87-1-1.36,6,1.27,9.44.67,15.63,1.66-1-.39-1.84-1.15-.86-1.08,9.09,1.36,4.09-.85,10.29-.69,3.46,1.14-1.39,2.07,4.88,1.74,3.76.87.71,1.62-.83,2,5.74-.75,10.55,1.47,13.78,1.9l-3,.28a27.69,27.69,0,0,1,4.76,0L376.54,35c1.74.33,3.23.43,3.16.92,1.86-.65-1.26-2.06,2.39-2.88,2.3.76,7.16-.16,7.87,1.46-7.32-1,.72,1.64-5.52,1.47a16.33,16.33,0,0,1,4.42.33c.26.19-.27.31-.75.36,6.95,1.89,3.34-1.55,10.63-1-1,.82,1.59,1.79,2.79,1.68-2.94-.22-1.32-1.57,1.42-2.07,4.63,1,5.11-.17,7.56.08l-2.78-.51c1-.83,3.33-.55,6.61-.61.23.71-3,.27-1.85.66,3.71-1.32,8.09,2.16,13.19,1.45,2.31.76.13,1.68,2.16,2.23,5.72-.77,6.06,1.63,12.06,1.08-1.65-1.31-2-1,2.29-1.91l-9.82.17,6.37-1.3c-2.95-.22-6.27.33-8,0,3-.77,2.72-.49,1.37-1.58,3.93,2.06,8.06-.49,12.65,1L444.43,39c6.93,1.79,12.55-.67,21.61.68l-2.9-.71c1.29-1.08,5.64.22,8.61-.05-.33,1,1.49,1.45,2.72,2.14-.11-.74,6.66.52,7.6-1.39l4,1.57c7.32,1,8.55-2.24,15.6-1.42-2.19.92,1,1.84-3.79,2.28,2.36.17,4.47.5,4.54-.18,1.35.72,6.62-.92,8.73.14,1-.37,1.41-1.39,4.05-1.15.28.22,0,.49,0,.49,0-.49,4.19-.42,1.94-1.65,7.08,3.5,20.34,1,26.48,4,5.17,0,11.37.28,16,.58-.32.27-.05.49-.92.31,6.34,1.46,4.19-2.49,11.42-.85,3.6,1.9-4,.53-1.69,1.33.73,3.34,8.87.27,13.61,2.64l-1.21.06c3.64,1.51,9.27-.22,15.37.69,0,0-.33.26-.09.49,4.37-1.17,12.38-.88,18.34-.62-2,1-2.76.35-1.8,1.74,2.66.17-.52-2.16,4.79-1.8,1.63.92,5.34,2,5.66,3.48l-5-.61c2.31,2.12,6.42.82,9,1.49l-.44.73c7.62.79,8-1.16,16.16.14l-.75-.72c4.74-1.21,3.56,1.68,8.23,1l1,2.17c3,0,10.59-.22,15.92.27-3.23,1-9.51.7-13.46.94,2.91.48,9.9,1.46,11.58.74-1.2,0-2.76.24-3.86-.25a26.68,26.68,0,0,1,6.48-.71,45.93,45.93,0,0,1,8,.88c-1.7,3.59,14.91,3.68,18.54,7.4,10.47.63,20.11,4.53,32,6.73-3.63-3.77,3.49.62,3.37-2.52,2.8.36,3.85.63,4.06.87l8,3.48c1.83,1.26-2.77.14-2.65.86,6,1.43,2.3,1.77,6.17,3.36-.61-1.23,2.42-1.12,5.81,0l-4.61-2.35c8.81.08,6.86,4,15.74,4.08l-2.89.41c4.5.33,16.32,3,21.07,1.42.72.49,1.61,1.5-.38,1.36,5.24,1.2,11.28,1.46,17,1.87s11,.92,15.08,2.25l-.92.63c2,.05,3.66-.93,6.05.15-.17.29-.91.63,0,.8,1.09-.12,5.46-.6,8,.18l-2.36.54a45.45,45.45,0,0,0,13.07,1,98,98,0,0,1,11.94-.61c-.26,2.18,7.89,3.73,12,4.5l-.18.3a65.28,65.28,0,0,0,8.57.58c2.71,0,5.29-.06,7.84-.19,5.11-.24,10.11-.63,15.77-.67,3.42,1.51,9.35,2,15.82,2.33s13.46.64,19.08,1.53c-1.71-.46.33-1.7,2.34-1.84,2.63.56,7.33-1.42,6.87.61l-.94,0c2,2,7.4,1.54,11.64,1.64l.74-2.63c5.52,2,12.8,1.71,19.43,1.39s12.65-1,15.71.72c2.67-.71,6-.69,8.63-1.46l-.1,1.42a174.92,174.92,0,0,0,20.33-.52l-1.82,1.11c5.19-.18,6.34-4.42,11.09-4.75l1.55,2c2.26-.13,4.53-.14,6.8-.12s4.55,0,6.82-.07a51,51,0,0,0,13.42-1.74c-.12.31-.33,1-1.79,1.15,4.25-.29,16.54,0,14.72-2.79.15.93,2.47.77,5.36.21s6.32-1.61,8.69-2.29l-.6,1.47c3.9-2.22,4-2.71,9.62-3.82,1.37,0,1.32,1-.52.82,4.59.21,3.35-1.74,8.89-1.67L1092,88c4.65-.48,4.22-.9,6.63-2.25a18,18,0,0,1,5.58-.58c2,.06,3.66.36,4.09.94.52-.85,2.9-2.23,5.67-2.25.43.42-.51.85-1,1.06a33.58,33.58,0,0,0,9.25-1.59,18.84,18.84,0,0,1,7.48-1.14,1.17,1.17,0,0,0,1,.68L1122.93,84a15.87,15.87,0,0,1-2.85.28c.18,1.27,5.18.79,1.49,3.1,3.85-1.53,10.31-4.72,15.23-4.87a2.58,2.58,0,0,1,.71.34l-.48.22a8.86,8.86,0,0,0,3-.68,28.06,28.06,0,0,0,4-.3c.74,1,5.76-.41,8.23-.78-.44-1.35,2.82-1.69-.4-2.31.41,0-.44.25-2.06.59a6.36,6.36,0,0,0-1,.32l.15-.15-6.1,1.15a10.21,10.21,0,0,1,6.6-1.68c1.11-1.11,2.34-2.27,3-2.83,3.71,1.38,10.37,1.2,11.49,2.22,3.67-1.1,8.07-2,12.06-3.18s7.58-2.5,9.66-4.26c2-.76,2.59.25,3.46.49-1.17.51-2.63.76-3.22,1.27,4.12-1.48,12.5-2.91,13.13-4.92,5.5-.33-2.64,2.31,4.62.44l-.87.76c7.53-.12,13.13-2.66,18.92-5.07s11.76-4.88,20.13-5.08c-1.15,0-1.73.08-2-.16,18.51-2.92,36.7-11.28,55-14,5.17-1,5.37-2.3,8.15-4.1l1.53,1.11,4.69-3.28c7-3.56,13.9-.54,22.43-6l-1.52-.56c3.4-.93,10.34-4.18,10.17-2.89a2.49,2.49,0,0,1,2.21-1.33l.36.71,7.68-4.2c6.48-1.78.1,3.34,9.34,0,3.32-1.56,8.88-5.93,7.4-5.92-1.4.53-3.68.94-4.07.24l2.93-1.61c-.15-1.19.12-2.57-.58-3.47s-2.31-1.31-6.35-.61l-4.75,3.33-2.09-.42,4.4-1.74c-2.88,0-4.13,1.44-5.7,2.7a3.8,3.8,0,0,0-2.65-.36l-4.44,4c-.94-.64,1.72-2.54-1.94-1.77-2.09,1.85,3,1.09-.78,3.18-2.9-.1-2.44-1.18-5.14.71-.61-.42-.11-1,1-1.66-2.42,1.62-6.94,2.73-7.92,4.36-3.08-.32-8.93,3.34-9.36,1.16a23.16,23.16,0,0,1-6.62,4.07c3.7-4-9.28,2.81-9-.29-1.31,1.65-4.25,2.83-7.56,4s-7,2.23-9.77,3.76a2.6,2.6,0,0,1,1.38-.89c-3.4.82-4.58.41-6.86.6.12,2-5,3.94-7.48,5.92-4.63-.66,1.88-2.92.09-4.31.64,1.49-6.73,3.53-5,4.41-3.48-.25-2.88.21-4.93-.91.09,2.51-2.82,1.23-5.06,3.37-4.89.05-1.77-1.9-6.61.15C1250,46.32,1254.24,44.3,1254.24,44.3ZM1134.13,74.23v0l2.51-.48Zm-10.28,1.64c1.26-.15,2.82-.38,4.47-.65.43.42.12,1-.92,1.12C1127.91,75.93,1125.44,76,1123.85,75.87ZM1147.24,82c-1.61.48-2.2.3-2.48.06.77-.16,1.67-.36,2.84-.66a1.66,1.66,0,0,0,.16-.21A1.85,1.85,0,0,1,1147.24,82Z" transform="translate(-0.03)"/><path class="cls-1" d="M1149.87,79.63a4.9,4.9,0,0,1,.65-.22,9.41,9.41,0,0,0-1-.14l-.5.53Z" transform="translate(-0.03)"/><path class="cls-1" d="M207.37,19.66l.22.05a1.35,1.35,0,0,1-.45-.23A1.86,1.86,0,0,1,207.37,19.66Z" transform="translate(-0.03)"/><polygon class="cls-1" points="980.62 85.26 980.64 85.62 981.55 85.29 980.62 85.26"/><path class="cls-1" d="M150.26,11a1.44,1.44,0,0,0-.73-.4C149.55,10.65,149.87,10.8,150.26,11Z" transform="translate(-0.03)"/><path class="cls-1" d="M125.47,9,122,8.24C123.5,8.62,124.6,8.83,125.47,9Z" transform="translate(-0.03)"/><path class="cls-1" d="M106.45,7a1.43,1.43,0,0,0-.41.57l0,0Z" transform="translate(-0.03)"/><path class="cls-1" d="M409.75,25.85a6,6,0,0,0,.74,0C412.23,25.68,411.05,25.71,409.75,25.85Z" transform="translate(-0.03)"/><path class="cls-1" d="M319.32,23a28.14,28.14,0,0,1,2.94-.47C320.66,22.34,319.42,22.23,319.32,23Z" transform="translate(-0.03)"/><path class="cls-1" d="M510.61,30.94s0,0,0,0l.62,0Z" transform="translate(-0.03)"/><path class="cls-1" d="M326.46,22.87a12.5,12.5,0,0,0-4.2-.31A19.67,19.67,0,0,0,326.46,22.87Z" transform="translate(-0.03)"/><path class="cls-1" d="M23.84.76,22.93.64a.25.25,0,0,1-.13.22Z" transform="translate(-0.03)"/><path class="cls-1" d="M22.8.86l-1,.09C22.24,1,22.65,1,22.8.86Z" transform="translate(-0.03)"/><path class="cls-1" d="M19.6,1.16,21.77,1A3.68,3.68,0,0,0,19.6,1.16Z" transform="translate(-0.03)"/><path class="cls-1" d="M49,3.11l.33-.48A.67.67,0,0,0,49,3.11Z" transform="translate(-0.03)"/><path class="cls-1" d="M56.72,3.49c-1.82-.24-4.51-1.4-7.09-1.25l-.26.39C50.62,2,54.93,4.23,56.72,3.49Z" transform="translate(-0.03)"/><path class="cls-1" d="M88.33,11.94l-6.4-.84c1.09.62,2.52,1.44-.42,1.38C89.51,14.64,79.92,11.15,88.33,11.94Z" transform="translate(-0.03)"/><path class="cls-1" d="M108.21,14.07c-3.47,0,0,.79-.21,1.09C110.22,14.81,110.76,14.72,108.21,14.07Z" transform="translate(-0.03)"/><path class="cls-1" d="M252.28,23.83l-.43,1.25C254.53,25.08,251.91,24.59,252.28,23.83Z" transform="translate(-0.03)"/><polygon class="cls-1" points="280.2 19.09 277.66 18.12 276.35 19.21 280.2 19.09"/><polygon class="cls-1" points="295.91 29.29 294.73 29.39 299.2 29.23 295.91 29.29"/><path class="cls-1" d="M537.88,44.9l-.7-1.62C535.37,43.46,534.87,45.2,537.88,44.9Z" transform="translate(-0.03)"/><path class="cls-1" d="M641.77,54.24a7.57,7.57,0,0,0,5.73,1.45C645.2,55.21,643,54.22,641.77,54.24Z" transform="translate(-0.03)"/><polygon class="cls-1" points="952.89 97.85 950.77 98.35 954.76 97.96 952.89 97.85"/></g></g></svg>